<?xml version="1.0" encoding="UTF-8" standalone="no"?>
<!-- Created with Inkscape (http://www.inkscape.org/) -->

<svg
   width="36.238613mm"
   height="37.264912mm"
   viewBox="0 0 36.238613 37.264912"
   version="1.1"
   id="svg1"
   sodipodi:docname="logo.svg"
   inkscape:export-filename="logo.png"
   inkscape:export-xdpi="700.90979"
   inkscape:export-ydpi="700.90979"
   inkscape:version="1.3 (0e150ed6c4, 2023-07-21)"
   xmlns:inkscape="http://www.inkscape.org/namespaces/inkscape"
   xmlns:sodipodi="http://sodipodi.sourceforge.net/DTD/sodipodi-0.dtd"
   xmlns="http://www.w3.org/2000/svg"
   xmlns:svg="http://www.w3.org/2000/svg">
  <sodipodi:namedview
     id="namedview1"
     pagecolor="#ffffff"
     bordercolor="#000000"
     borderopacity="0.25"
     inkscape:showpageshadow="2"
     inkscape:pageopacity="0.0"
     inkscape:pagecheckerboard="0"
     inkscape:deskcolor="#d1d1d1"
     inkscape:document-units="mm"
     showguides="true"
     inkscape:export-bgcolor="#ffffffff"
     inkscape:zoom="5.5522516"
     inkscape:cx="68.530756"
     inkscape:cy="70.42188"
     inkscape:window-width="1920"
     inkscape:window-height="1022"
     inkscape:window-x="0"
     inkscape:window-y="0"
     inkscape:window-maximized="1"
     inkscape:current-layer="layer1">
    <sodipodi:guide
       position="2.5260126,272.95095"
       orientation="1,0"
       id="guide3"
       inkscape:locked="false" />
    <sodipodi:guide
       position="33.712658,280.30331"
       orientation="1,0"
       id="guide4"
       inkscape:locked="false" />
    <sodipodi:guide
       position="6.2126296,293.96073"
       orientation="0,-1"
       id="guide5"
       inkscape:locked="false" />
    <sodipodi:guide
       position="39.327075,262.77409"
       orientation="0,-1"
       id="guide6"
       inkscape:locked="false" />
  </sodipodi:namedview>
  <defs
     id="defs1" />
  <g
     inkscape:label="Layer 1"
     inkscape:groupmode="layer"
     id="layer1"
     transform="translate(-26.788029,-29.350146)">
    <path
       id="rect5"
       style="opacity:1;fill:#89729e;fill-opacity:1;stroke-width:1.17833"
       d="M 26.788029,29.350146 V 66.615055 H 63.026644 V 29.350146 Z m 20.589441,2.967261 c 0.231069,0 0.46555,0.0097 0.699182,0.03204 0.116816,0.01118 0.23356,0.0257 0.349333,0.04341 0.115772,0.0177 0.230559,0.0387 0.344165,0.06356 0.113605,0.02486 0.226098,0.05366 0.336413,0.0863 0.110316,0.03264 0.218626,0.06902 0.324528,0.110071 0.105902,0.04105 0.209176,0.08634 0.309542,0.136426 0.100366,0.05009 0.197749,0.105096 0.291455,0.164848 0.09371,0.05975 0.183827,0.124261 0.269751,0.194303 0.08592,0.07004 0.167411,0.145383 0.24443,0.226343 0.07702,0.08096 0.149534,0.167945 0.216524,0.260449 0.06699,0.0925 0.128647,0.190916 0.184485,0.295589 0.05584,0.104676 0.105782,0.215323 0.149345,0.332797 0.04356,0.117474 0.08094,0.241687 0.111104,0.372587 0.03017,0.130899 0.05309,0.268459 0.06873,0.413411 0.01564,0.144952 0.02377,0.297188 0.02377,0.45682 v 0.282153 l -2.497522,0.282154 v -0.465605 c 0,-0.119944 -0.01197,-0.228851 -0.03411,-0.327629 -0.02213,-0.09878 -0.0547,-0.187275 -0.0956,-0.26665 -0.0409,-0.07938 -0.09045,-0.149621 -0.146761,-0.211357 -0.05631,-0.06174 -0.119237,-0.114852 -0.187585,-0.160713 -0.06835,-0.04586 -0.142076,-0.08452 -0.219109,-0.116272 -0.07703,-0.03175 -0.157427,-0.05656 -0.239778,-0.07597 -0.08235,-0.0194 -0.166323,-0.03304 -0.250631,-0.04186 -0.08431,-0.0088 -0.168761,-0.01292 -0.251664,-0.01292 -0.0829,0 -0.167487,0.0041 -0.252181,0.01292 -0.08469,0.0088 -0.169685,0.02246 -0.252698,0.04186 -0.08301,0.0194 -0.164503,0.04422 -0.242362,0.07597 -0.07786,0.03175 -0.151945,0.07041 -0.221175,0.116272 -0.06923,0.04586 -0.133555,0.09898 -0.190686,0.160713 -0.05713,0.06174 -0.107267,0.131982 -0.148829,0.211357 -0.04156,0.07937 -0.07413,0.167873 -0.09663,0.26665 -0.01126,0.04939 -0.01999,0.101493 -0.02584,0.156063 -0.0058,0.05457 -0.0093,0.111594 -0.0093,0.171566 v 3.443201 c 0,0.05997 0.0035,0.116995 0.0093,0.171565 0.0058,0.05457 0.01458,0.106674 0.02584,0.156063 0.02252,0.09878 0.05508,0.187276 0.09663,0.266651 0.04156,0.07937 0.0917,0.14962 0.148829,0.211356 0.05713,0.06174 0.121453,0.11537 0.190686,0.161231 0.06923,0.04586 0.143316,0.084 0.221175,0.115755 0.07786,0.03175 0.159349,0.05708 0.242362,0.07648 0.08301,0.0194 0.168004,0.03304 0.252698,0.04186 0.08469,0.0088 0.169278,0.0124 0.252181,0.0124 0.0829,0 0.167356,-0.0036 0.251664,-0.0124 0.08431,-0.0088 0.168279,-0.02246 0.250631,-0.04186 0.08235,-0.0194 0.162748,-0.04473 0.239778,-0.07648 0.07703,-0.03175 0.150758,-0.06989 0.219109,-0.115755 0.06835,-0.04586 0.131278,-0.0995 0.187585,-0.161231 0.05631,-0.06174 0.105861,-0.131984 0.146761,-0.211356 0.0409,-0.07937 0.07347,-0.167873 0.0956,-0.266651 0.02213,-0.09878 0.03411,-0.207686 0.03411,-0.327628 v -0.465605 l 2.497522,0.282153 v 0.282154 c 0,0.159629 -0.0081,0.311867 -0.02377,0.456819 -0.01564,0.144952 -0.03856,0.282512 -0.06873,0.413412 -0.03016,0.130899 -0.06754,0.255113 -0.111104,0.372587 -0.04356,0.117474 -0.09351,0.228637 -0.149345,0.333313 -0.05584,0.104675 -0.117495,0.203085 -0.184485,0.295589 -0.06699,0.0925 -0.139506,0.178973 -0.216524,0.259932 -0.07702,0.08096 -0.158506,0.156301 -0.24443,0.226343 -0.08592,0.07004 -0.176044,0.134552 -0.269751,0.194304 -0.09371,0.05975 -0.191089,0.114759 -0.291455,0.164847 -0.100366,0.05009 -0.20364,0.09537 -0.309542,0.136426 -0.105902,0.04105 -0.214212,0.07794 -0.324528,0.110588 -0.110315,0.03264 -0.222808,0.06092 -0.336413,0.08578 -0.113606,0.02486 -0.228393,0.04637 -0.344165,0.06408 -0.115773,0.0177 -0.232517,0.03172 -0.349333,0.04289 -0.233632,0.02235 -0.468113,0.03256 -0.699182,0.03256 -0.231069,0 -0.466198,-0.0102 -0.700216,-0.03256 -0.117009,-0.01118 -0.233808,-0.02519 -0.349849,-0.04289 -0.116041,-0.0177 -0.231263,-0.03922 -0.345199,-0.06408 -0.113936,-0.02486 -0.226236,-0.05314 -0.33693,-0.08578 -0.110694,-0.03264 -0.219765,-0.06954 -0.326078,-0.110588 -0.106316,-0.04105 -0.210293,-0.08634 -0.311093,-0.136426 -0.100797,-0.05009 -0.198341,-0.105098 -0.292488,-0.164847 -0.09415,-0.05975 -0.184427,-0.124262 -0.270785,-0.194304 -0.08636,-0.07004 -0.16855,-0.145383 -0.245979,-0.226343 -0.07743,-0.08096 -0.15019,-0.167428 -0.217558,-0.259932 -0.06737,-0.0925 -0.12935,-0.190914 -0.185519,-0.295589 -0.05617,-0.104676 -0.106546,-0.215839 -0.150378,-0.333313 -0.04383,-0.117474 -0.08126,-0.241688 -0.111621,-0.372587 -0.03036,-0.1309 -0.05402,-0.26846 -0.06976,-0.413412 -0.01575,-0.144952 -0.02377,-0.29719 -0.02377,-0.456819 V 35.50636 c 0,-0.159632 0.008,-0.311868 0.02377,-0.45682 0.01575,-0.144952 0.03941,-0.282512 0.06976,-0.413411 0.03036,-0.1309 0.06779,-0.255113 0.111621,-0.372587 0.04383,-0.117474 0.09421,-0.228121 0.150378,-0.332797 0.05617,-0.104673 0.11815,-0.203085 0.185519,-0.295589 0.06737,-0.0925 0.140126,-0.179489 0.217558,-0.260449 0.07743,-0.08096 0.159621,-0.156301 0.245979,-0.226343 0.08636,-0.07004 0.176637,-0.134551 0.270785,-0.194303 0.09415,-0.05975 0.191691,-0.11476 0.292488,-0.164848 0.1008,-0.05009 0.204777,-0.09537 0.311093,-0.136426 0.106313,-0.04105 0.215384,-0.07743 0.326078,-0.110071 0.110694,-0.03264 0.222994,-0.06144 0.33693,-0.0863 0.113936,-0.02486 0.229158,-0.04586 0.345199,-0.06356 0.116041,-0.0177 0.23284,-0.03223 0.349849,-0.04341 0.234018,-0.02235 0.469147,-0.03204 0.700216,-0.03204 z m -15.832625,0.07028 h 2.497522 v 6.773747 c 0,0.157868 -0.0043,0.307632 -0.01292,0.450618 -0.0086,0.142989 -0.02149,0.278952 -0.03876,0.407727 -0.01727,0.128778 -0.03916,0.250635 -0.06511,0.36587 -0.02595,0.115232 -0.05628,0.223717 -0.09095,0.326078 -0.03467,0.10236 -0.07336,0.198717 -0.116788,0.288871 -0.04343,0.09016 -0.09145,0.174081 -0.143661,0.252698 -0.05221,0.07862 -0.108462,0.151877 -0.169499,0.219625 -0.06104,0.06775 -0.126993,0.130038 -0.196887,0.187585 -0.06989,0.05755 -0.14394,0.110116 -0.222725,0.15813 -0.07879,0.04801 -0.161887,0.09159 -0.249597,0.130741 -0.08771,0.03915 -0.180313,0.07395 -0.276986,0.104904 -0.09667,0.03095 -0.197673,0.05822 -0.303341,0.08165 -0.105668,0.02343 -0.215515,0.04286 -0.330212,0.05943 -0.114698,0.01657 -0.234356,0.02993 -0.358118,0.04031 -0.247523,0.02075 -0.512867,0.02997 -0.79685,0.02997 h -1.354956 l -0.282154,-2.074292 h 1.072286 c 0.107597,0 0.210826,-0.0021 0.309025,-0.0083 0.0982,-0.0061 0.19141,-0.01628 0.279053,-0.03204 0.08764,-0.01577 0.17005,-0.03729 0.24598,-0.06615 0.07593,-0.02886 0.145714,-0.06517 0.208773,-0.110588 0.06306,-0.04542 0.119434,-0.09991 0.168465,-0.165364 0.04903,-0.06546 0.0907,-0.142028 0.12454,-0.230994 0.03384,-0.08897 0.0595,-0.190493 0.077,-0.306441 0.0175,-0.115948 0.02687,-0.246339 0.02687,-0.392741 z m 6.081799,0 h 2.511474 l 3.302125,9.87795 h -2.539897 l -0.479557,-1.594734 h -3.076298 l -0.480074,1.594734 H 34.32452 Z m 14.520044,0 h 2.498039 v 3.894853 h 0.733805 l 2.074292,-3.894853 h 2.808097 l -2.935221,4.939234 2.935221,4.938716 h -2.808097 l -2.074292,-3.908805 h -0.733805 v 3.908805 h -2.498039 z m -13.264307,3.245797 -0.902787,2.963127 h 1.806091 z m -9.567374,7.761283 h 5.969144 v 2.074292 h -3.471106 v 1.876372 h 2.48357 v 2.074291 h -2.48357 v 1.778187 h 3.612183 v 2.074292 h -6.110221 z m 7.098274,0 h 3.612183 c 0.231069,0 0.46555,0.0097 0.699182,0.03204 0.116816,0.01118 0.23356,0.0257 0.349333,0.04341 0.115772,0.0177 0.230559,0.0387 0.344165,0.06356 0.113605,0.02486 0.226098,0.05314 0.336413,0.08578 0.110316,0.03264 0.218626,0.06954 0.324528,0.110587 0.105902,0.04105 0.209176,0.08634 0.309542,0.136426 0.100366,0.05009 0.197749,0.105096 0.291455,0.164848 0.09371,0.05975 0.183827,0.124261 0.269751,0.194303 0.08592,0.07004 0.16793,0.145383 0.244946,0.226343 0.07702,0.08096 0.149018,0.167428 0.216008,0.259933 0.06699,0.0925 0.128647,0.190913 0.184485,0.295589 0.05584,0.104675 0.105782,0.215839 0.149345,0.333313 0.04356,0.117474 0.08094,0.241687 0.111104,0.372587 0.03016,0.130899 0.05309,0.268459 0.06873,0.413411 0.01564,0.144952 0.02377,0.297188 0.02377,0.45682 v 3.499528 c 0,0.159632 -0.0081,0.311867 -0.02377,0.45682 -0.01564,0.14495 -0.03856,0.282511 -0.06873,0.413411 -0.03017,0.1309 -0.06754,0.255113 -0.111104,0.372587 -0.04356,0.117474 -0.09351,0.228121 -0.149345,0.332796 -0.05584,0.104676 -0.117495,0.203087 -0.184485,0.295589 -0.06699,0.09251 -0.138989,0.17949 -0.216008,0.26045 -0.07702,0.08096 -0.159022,0.156302 -0.244946,0.226342 -0.08592,0.07004 -0.176044,0.134552 -0.269751,0.194304 -0.09371,0.05975 -0.191089,0.114243 -0.291455,0.164331 -0.100366,0.05009 -0.20364,0.09589 -0.309542,0.136942 -0.105902,0.04105 -0.214212,0.07743 -0.324528,0.110071 -0.110315,0.03264 -0.222808,0.06144 -0.336413,0.0863 -0.113606,0.02486 -0.228393,0.04586 -0.344165,0.06356 -0.115773,0.0177 -0.232517,0.03223 -0.349333,0.04341 -0.233632,0.02235 -0.468113,0.03204 -0.699182,0.03204 h -3.612183 z m 8.522994,0 h 5.968628 v 2.074292 h -3.471106 v 1.876372 h 2.48357 v 2.074291 h -2.48357 v 1.778187 h 3.6127 v 2.074292 h -6.110222 z m 7.097758,0 h 2.497522 l 3.471623,5.446696 V 43.394767 H 60.5007 v 9.877434 h -2.497522 l -3.471623,-5.446696 v 5.446696 h -2.497522 z m -13.12323,2.074292 v 5.72885 h 1.114661 c 0.0829,0 0.167356,-0.0041 0.251664,-0.01292 0.08431,-0.0088 0.168279,-0.02246 0.250631,-0.04186 0.08235,-0.0194 0.163263,-0.04422 0.240295,-0.07597 0.07703,-0.03175 0.150241,-0.07041 0.218592,-0.116272 0.06835,-0.04586 0.131795,-0.09898 0.188102,-0.160714 0.05631,-0.06174 0.105861,-0.131981 0.146761,-0.211356 0.0409,-0.07937 0.07295,-0.167873 0.09508,-0.266651 0.02213,-0.09878 0.03411,-0.207684 0.03411,-0.327628 v -3.302124 c 0,-0.119944 -0.01197,-0.228851 -0.03411,-0.327629 -0.02213,-0.09878 -0.05418,-0.187275 -0.09508,-0.26665 -0.0409,-0.07937 -0.09045,-0.149621 -0.146761,-0.211357 -0.05631,-0.06174 -0.119753,-0.115369 -0.188102,-0.16123 -0.06835,-0.04586 -0.14156,-0.084 -0.218592,-0.115755 -0.07703,-0.03175 -0.157944,-0.05708 -0.240295,-0.07648 -0.08235,-0.0194 -0.166323,-0.03304 -0.250631,-0.04186 -0.08431,-0.0088 -0.168761,-0.0124 -0.251664,-0.0124 z m 3.610116,11.003463 c 0.126317,0 0.259247,0.006 0.394808,0.01964 0.13556,0.01368 0.273693,0.03478 0.411344,0.06511 0.137652,0.03033 0.274621,0.06994 0.40721,0.11989 0.06629,0.02497 0.131649,0.05225 0.195337,0.08268 0.06369,0.03044 0.125848,0.06398 0.186035,0.100252 0.06019,0.03627 0.118356,0.07535 0.17415,0.117822 0.05579,0.04247 0.109175,0.08841 0.15968,0.13746 0.05051,0.04905 0.0983,0.1011 0.142627,0.157096 0.04432,0.056 0.08523,0.116002 0.122473,0.179317 0.03725,0.06331 0.07098,0.130017 0.100253,0.201022 0.02927,0.071 0.054,0.146243 0.07441,0.225309 0.02041,0.07906 0.03637,0.162099 0.04703,0.249597 0.01065,0.0875 0.01602,0.179135 0.01602,0.275435 v 0.200505 l -1.770951,0.199988 c 0,-0.07254 -0.0035,-0.140408 -0.01085,-0.203605 -0.0074,-0.0632 -0.01853,-0.121765 -0.03307,-0.1757 -0.01454,-0.05393 -0.0328,-0.103561 -0.05426,-0.148312 -0.02146,-0.04475 -0.04627,-0.08476 -0.07441,-0.120406 -0.02814,-0.03564 -0.05946,-0.06692 -0.09405,-0.09353 -0.03459,-0.02662 -0.07237,-0.04848 -0.113171,-0.06615 -0.0408,-0.01766 -0.08448,-0.031 -0.131258,-0.03979 -0.04678,-0.0088 -0.09682,-0.01292 -0.149345,-0.01292 -0.05253,0 -0.100647,0.0026 -0.144694,0.0083 -0.04405,0.0057 -0.08378,0.01402 -0.11989,0.02481 -0.03611,0.01079 -0.06842,0.02443 -0.09715,0.03979 -0.02873,0.01536 -0.05408,0.03281 -0.07597,0.05219 -0.02189,0.01939 -0.04022,0.0407 -0.05581,0.06356 -0.01559,0.02286 -0.02839,0.04707 -0.03824,0.07286 -0.0098,0.0258 -0.01705,0.05295 -0.0217,0.08113 -0.0047,0.02818 -0.0067,0.05732 -0.0067,0.08733 0,0.03377 0.002,0.06818 0.0072,0.103353 0.0052,0.03518 0.01364,0.07122 0.02584,0.107487 0.01219,0.03627 0.02822,0.07302 0.04909,0.110071 0.02087,0.03705 0.04677,0.07462 0.07803,0.112138 0.03127,0.03752 0.06824,0.07498 0.111621,0.112654 0.04338,0.03768 0.09316,0.07514 0.150379,0.112655 0.05722,0.03752 0.12153,0.07509 0.194303,0.112138 0.07277,0.03705 0.153865,0.0738 0.243913,0.110071 0.173842,0.07004 0.340896,0.140457 0.499711,0.21239 0.158815,0.07193 0.309263,0.145431 0.451135,0.221175 0.141873,0.07574 0.274894,0.153658 0.397909,0.235128 0.123014,0.08147 0.236238,0.166688 0.33848,0.255798 0.05112,0.04456 0.09964,0.09012 0.145211,0.136942 0.04557,0.04682 0.08838,0.09484 0.128158,0.144178 0.03978,0.04933 0.07632,0.09985 0.11007,0.151928 0.03375,0.05208 0.06451,0.105646 0.09199,0.160714 0.02748,0.05507 0.0519,0.11172 0.07286,0.170016 0.02097,0.0583 0.03849,0.118072 0.05271,0.179834 0.01422,0.06176 0.02481,0.125219 0.03204,0.190686 0.0072,0.06547 0.01085,0.133159 0.01085,0.202571 0,0.113186 -0.0055,0.220116 -0.01654,0.321428 -0.01102,0.101311 -0.02748,0.196727 -0.04858,0.286804 -0.0211,0.09008 -0.04677,0.174765 -0.077,0.254248 -0.03023,0.07948 -0.06493,0.153713 -0.103353,0.223242 -0.03842,0.06953 -0.08042,0.134605 -0.126091,0.19482 -0.04567,0.06021 -0.09479,0.115891 -0.146761,0.167432 -0.05197,0.05154 -0.106998,0.0986 -0.164331,0.14211 -0.05733,0.04351 -0.117049,0.08326 -0.1788,0.119373 -0.06175,0.03611 -0.12546,0.06883 -0.190686,0.09819 -0.06523,0.02936 -0.132228,0.0553 -0.199988,0.07855 -0.06776,0.02325 -0.136323,0.04372 -0.205672,0.0615 -0.06935,0.01777 -0.139292,0.03306 -0.20929,0.04599 -0.139996,0.02587 -0.2801,0.04285 -0.417029,0.05323 -0.136928,0.01038 -0.270558,0.01395 -0.396875,0.01395 -0.126317,0 -0.26326,-0.0054 -0.40566,-0.01809 -0.1424,-0.01266 -0.29039,-0.03221 -0.439766,-0.06098 -0.149377,-0.02876 -0.299756,-0.06693 -0.447001,-0.115238 -0.07362,-0.02415 -0.146692,-0.05092 -0.218075,-0.08062 -0.07138,-0.02968 -0.141285,-0.06202 -0.209289,-0.09767 -0.068,-0.03564 -0.133917,-0.07424 -0.197404,-0.116272 -0.06349,-0.04203 -0.124585,-0.08757 -0.182418,-0.136425 -0.05783,-0.04885 -0.112774,-0.100993 -0.163815,-0.157097 -0.05104,-0.0561 -0.09797,-0.11605 -0.141076,-0.179834 -0.04311,-0.06378 -0.08223,-0.131711 -0.116272,-0.203605 -0.03404,-0.07189 -0.06299,-0.147976 -0.08682,-0.22841 -0.02383,-0.08043 -0.04229,-0.164845 -0.05478,-0.254248 -0.01248,-0.0894 -0.01912,-0.183867 -0.01912,-0.28267 V 61.32496 l 1.770951,-0.199988 v 0.179834 c 0,0.09005 0.0088,0.170197 0.02481,0.241329 0.01604,0.07113 0.03906,0.133182 0.06821,0.187586 0.02916,0.0544 0.06453,0.101211 0.10387,0.141076 0.03934,0.03987 0.08312,0.07274 0.129708,0.100252 0.04659,0.02752 0.09586,0.04983 0.146761,0.06718 0.05091,0.01735 0.103252,0.02989 0.155546,0.03927 0.104587,0.01876 0.208724,0.02377 0.301273,0.02377 0.09255,0 0.181992,-0.0068 0.264067,-0.02274 0.04104,-0.008 0.08047,-0.01823 0.117305,-0.03101 0.03684,-0.01278 0.07126,-0.02837 0.102836,-0.04651 0.03158,-0.01814 0.06052,-0.03901 0.08578,-0.06305 0.02527,-0.02404 0.0467,-0.05116 0.0646,-0.08165 0.0179,-0.03048 0.03186,-0.06432 0.04134,-0.101803 0.0095,-0.03748 0.01447,-0.07848 0.01447,-0.123506 0,-0.03752 -0.0017,-0.07322 -0.0067,-0.108004 -0.0051,-0.03478 -0.0132,-0.06846 -0.02532,-0.101286 -0.01212,-0.03283 -0.02845,-0.06499 -0.04961,-0.09663 -0.02116,-0.03166 -0.04738,-0.06278 -0.07958,-0.09405 -0.0322,-0.03127 -0.07052,-0.06291 -0.115755,-0.09457 -0.04524,-0.03166 -0.09735,-0.06329 -0.157613,-0.09612 -0.120533,-0.06566 -0.273002,-0.134766 -0.465605,-0.209806 -0.217616,-0.08505 -0.416754,-0.171644 -0.598413,-0.259933 -0.181659,-0.08829 -0.345823,-0.177983 -0.494027,-0.269751 -0.148204,-0.09177 -0.280142,-0.185639 -0.397392,-0.28112 -0.05862,-0.04774 -0.114009,-0.09598 -0.165364,-0.144694 -0.05136,-0.04871 -0.09875,-0.09756 -0.143144,-0.147277 -0.0444,-0.04971 -0.08575,-0.100151 -0.123507,-0.150896 -0.03775,-0.05074 -0.07193,-0.10219 -0.103352,-0.153995 -0.03142,-0.05181 -0.05986,-0.104202 -0.08527,-0.157097 -0.0254,-0.05289 -0.048,-0.106184 -0.0677,-0.160197 -0.0197,-0.05401 -0.03634,-0.108653 -0.05064,-0.163814 -0.0143,-0.05516 -0.02643,-0.110576 -0.03566,-0.166915 -0.01845,-0.112677 -0.02687,-0.228153 -0.02687,-0.345715 0,-0.09818 0.0051,-0.191457 0.01499,-0.280603 0.0099,-0.08915 0.02488,-0.173746 0.04393,-0.254248 0.01904,-0.0805 0.04239,-0.157201 0.06976,-0.229444 0.02737,-0.07224 0.05862,-0.140268 0.09354,-0.204638 0.0349,-0.06437 0.0736,-0.125018 0.115238,-0.181901 0.04164,-0.05688 0.08627,-0.109898 0.133842,-0.159681 0.04757,-0.04978 0.09766,-0.09646 0.150378,-0.139526 0.05272,-0.04307 0.107787,-0.08263 0.164848,-0.119372 0.05706,-0.03674 0.116123,-0.07049 0.176734,-0.101286 0.06061,-0.0308 0.123188,-0.05848 0.186552,-0.08372 0.06336,-0.02524 0.127949,-0.04815 0.193269,-0.06821 0.06532,-0.02007 0.130924,-0.03743 0.197404,-0.05271 0.132962,-0.03056 0.267668,-0.05189 0.400493,-0.06563 0.132824,-0.01374 0.263839,-0.01964 0.390157,-0.01964 z m 8.494572,0 c 0.163837,0 0.33044,0.0069 0.496093,0.02274 0.165655,0.01585 0.330343,0.04019 0.491443,0.07545 0.08055,0.01763 0.160529,0.03834 0.238745,0.0615 0.07822,0.02314 0.154872,0.04892 0.229961,0.07803 0.07509,0.02911 0.148461,0.06112 0.219624,0.09663 0.07116,0.03551 0.140265,0.07442 0.206706,0.116789 0.06644,0.04237 0.130279,0.08831 0.191203,0.137976 0.06092,0.04966 0.118507,0.10331 0.173116,0.160714 0.05461,0.0574 0.105981,0.118379 0.153479,0.183968 0.0475,0.06559 0.09115,0.135587 0.130741,0.209806 0.03959,0.07422 0.07505,0.152868 0.105937,0.236162 0.03089,0.08329 0.05716,0.171253 0.07855,0.264066 0.02139,0.09281 0.038,0.190746 0.04909,0.293522 0.01109,0.102777 0.01705,0.21031 0.01705,0.323495 v 0.199988 l -1.770951,0.200504 V 58.80365 c 0,-0.08505 -0.0086,-0.162507 -0.02429,-0.232544 -0.01569,-0.07004 -0.0387,-0.132856 -0.0677,-0.189136 -0.029,-0.05628 -0.06395,-0.106088 -0.10387,-0.149862 -0.03992,-0.04377 -0.08486,-0.08169 -0.133325,-0.114204 -0.04846,-0.03252 -0.10041,-0.05965 -0.155029,-0.08217 -0.05462,-0.02251 -0.111625,-0.03999 -0.170016,-0.05374 -0.05839,-0.01376 -0.117989,-0.02372 -0.177767,-0.02997 -0.05978,-0.0063 -0.120019,-0.0088 -0.1788,-0.0088 -0.05878,0 -0.118749,0.0025 -0.178801,0.0088 -0.06005,0.0063 -0.119941,0.01621 -0.1788,0.02997 -0.05886,0.01376 -0.116878,0.03123 -0.172083,0.05374 -0.05521,0.02251 -0.107491,0.04965 -0.156579,0.08217 -0.04909,0.03252 -0.09488,0.07043 -0.135393,0.114204 -0.04051,0.04377 -0.07595,0.09358 -0.105419,0.149862 -0.02947,0.05628 -0.05277,0.119099 -0.06873,0.189136 -0.01597,0.07004 -0.02481,0.147499 -0.02481,0.232544 v 2.441194 c 0,0.08505 0.0088,0.162508 0.02481,0.232544 0.01597,0.07004 0.03926,0.132856 0.06873,0.189136 0.02947,0.05628 0.06491,0.105572 0.105419,0.149345 0.04051,0.04377 0.0863,0.08169 0.135393,0.114205 0.04909,0.03252 0.101374,0.05965 0.156579,0.08217 0.05521,0.02251 0.113223,0.0405 0.172083,0.05426 0.05886,0.01376 0.118749,0.0232 0.1788,0.02945 0.06005,0.0063 0.120019,0.0093 0.178801,0.0093 0.05878,0 0.119022,-0.003 0.1788,-0.0093 0.05978,-0.0063 0.119377,-0.0157 0.177767,-0.02945 0.05839,-0.01376 0.115397,-0.03175 0.170016,-0.05426 0.05462,-0.02251 0.106566,-0.04965 0.155029,-0.08217 0.04846,-0.03252 0.0934,-0.07043 0.133325,-0.114205 0.03992,-0.04377 0.07487,-0.09307 0.10387,-0.149345 0.029,-0.05628 0.052,-0.119098 0.0677,-0.189136 0.01569,-0.07004 0.02429,-0.147498 0.02429,-0.232544 v -0.100252 h -1.010791 v -1.470711 h 2.781742 v 1.640727 c 0,0.113185 -0.006,0.221234 -0.01705,0.324011 -0.01109,0.102777 -0.0277,0.200709 -0.04909,0.293522 -0.02139,0.09281 -0.04766,0.180773 -0.07855,0.264067 -0.03089,0.08329 -0.06634,0.161942 -0.105937,0.236161 -0.03959,0.07422 -0.08324,0.143701 -0.130741,0.209289 -0.0475,0.06559 -0.09887,0.127082 -0.153479,0.184485 -0.05461,0.0574 -0.112192,0.111051 -0.173116,0.160714 -0.06092,0.04966 -0.124761,0.09509 -0.191203,0.137459 -0.06644,0.04237 -0.135542,0.08127 -0.206706,0.116789 -0.07116,0.03551 -0.144536,0.06804 -0.219624,0.09715 -0.07509,0.02911 -0.151743,0.05489 -0.229961,0.07803 -0.07822,0.02314 -0.158194,0.04335 -0.238745,0.06098 -0.1611,0.03525 -0.325788,0.06012 -0.491443,0.07596 -0.165653,0.01585 -0.332256,0.02274 -0.496093,0.02274 -0.163838,0 -0.330166,-0.0069 -0.496094,-0.02274 -0.165928,-0.01585 -0.331423,-0.04071 -0.492993,-0.07596 -0.08078,-0.01763 -0.160775,-0.03783 -0.239262,-0.06098 -0.07849,-0.02314 -0.155612,-0.04892 -0.230994,-0.07803 -0.07538,-0.02911 -0.14867,-0.06164 -0.220141,-0.09715 -0.07147,-0.03551 -0.140985,-0.07442 -0.20774,-0.116789 -0.06675,-0.04237 -0.131005,-0.0878 -0.192236,-0.137459 -0.06123,-0.04966 -0.119248,-0.10331 -0.174149,-0.160714 -0.0549,-0.0574 -0.106746,-0.118895 -0.154513,-0.184485 -0.04777,-0.06559 -0.09143,-0.13507 -0.131258,-0.209289 -0.03983,-0.07422 -0.07538,-0.152868 -0.106454,-0.236161 -0.03108,-0.08329 -0.05806,-0.171254 -0.07958,-0.264067 -0.02152,-0.09281 -0.03793,-0.190745 -0.04909,-0.293522 -0.01117,-0.102777 -0.01705,-0.210826 -0.01705,-0.324011 V 58.73337 c 0,-0.113185 0.0059,-0.220718 0.01705,-0.323495 0.01117,-0.102776 0.02757,-0.200709 0.04909,-0.293522 0.02153,-0.09281 0.0485,-0.180772 0.07958,-0.264066 0.03108,-0.08329 0.06663,-0.161942 0.106454,-0.236162 0.03983,-0.07422 0.08349,-0.144217 0.131258,-0.209806 0.04777,-0.06559 0.09961,-0.126564 0.154513,-0.183968 0.0549,-0.0574 0.112918,-0.111051 0.174149,-0.160714 0.06123,-0.04966 0.125482,-0.09561 0.192236,-0.137976 0.06676,-0.04237 0.136268,-0.08127 0.20774,-0.116789 0.07147,-0.03551 0.144759,-0.06753 0.220141,-0.09663 0.07538,-0.02911 0.152507,-0.05489 0.230994,-0.07803 0.07849,-0.02314 0.158477,-0.04386 0.239262,-0.0615 0.16157,-0.03525 0.327065,-0.0596 0.492993,-0.07545 0.165928,-0.01585 0.332256,-0.02274 0.496094,-0.02274 z m -21.701518,0.04961 h 2.561601 c 0.163837,0 0.329922,0.0074 0.495577,0.02325 0.165654,0.01585 0.330859,0.04019 0.491959,0.07545 0.08055,0.01763 0.160011,0.03783 0.238229,0.06098 0.07822,0.02314 0.154871,0.04944 0.22996,0.07855 0.07509,0.02911 0.148461,0.06113 0.219625,0.09663 0.07116,0.03551 0.140264,0.07442 0.206705,0.116788 0.06644,0.04237 0.13028,0.08831 0.191203,0.137976 0.06092,0.04966 0.119024,0.102794 0.173633,0.160197 0.05461,0.0574 0.105981,0.118896 0.153479,0.184485 0.0475,0.06559 0.09115,0.135587 0.130741,0.209807 0.03959,0.07422 0.07505,0.152867 0.105937,0.236161 0.03089,0.08329 0.05716,0.171254 0.07855,0.264066 0.02139,0.09281 0.038,0.190229 0.04909,0.293006 0.01109,0.102777 0.01654,0.210826 0.01654,0.324011 v 2.481502 c 0,0.113186 -0.0054,0.220718 -0.01654,0.323495 -0.01109,0.102777 -0.0277,0.200709 -0.04909,0.293522 -0.02139,0.09281 -0.04766,0.180774 -0.07855,0.264066 -0.03089,0.08329 -0.06634,0.161943 -0.105937,0.236162 -0.03959,0.07422 -0.08324,0.1437 -0.130741,0.209289 -0.0475,0.06559 -0.09887,0.127082 -0.153479,0.184485 -0.05461,0.0574 -0.112709,0.111051 -0.173633,0.160714 -0.06092,0.04966 -0.124761,0.09561 -0.191203,0.137976 -0.06644,0.04237 -0.135542,0.08127 -0.206705,0.116789 -0.07116,0.03551 -0.144536,0.06753 -0.219625,0.09664 -0.07509,0.02911 -0.151742,0.05489 -0.22996,0.07803 -0.07822,0.02314 -0.157678,0.04335 -0.238229,0.06098 -0.1611,0.03525 -0.326305,0.06012 -0.491959,0.07597 -0.165655,0.01585 -0.33174,0.02274 -0.495577,0.02274 h -2.561601 z m 6.043042,0 h 4.2323 v 1.470712 h -2.461349 v 1.331185 h 1.761133 v 1.470711 h -1.761133 v 1.260388 h 2.561601 v 1.470711 h -4.332552 z m 10.395748,0 h 1.770951 v 7.003707 h -1.770951 z m 8.744686,0 H 56.2684 l 2.461349,3.862297 V 56.522131 H 60.5007 v 7.003707 H 58.729749 L 56.2684,59.664058 v 3.86178 h -1.770951 z m -23.412525,1.470712 v 4.062284 h 0.79065 c 0.05878,0 0.118505,-0.0025 0.178283,-0.0088 0.05978,-0.0063 0.119377,-0.01622 0.177767,-0.02997 0.05839,-0.01376 0.115397,-0.03123 0.170016,-0.05374 0.05462,-0.02251 0.107083,-0.05016 0.155546,-0.08268 0.04846,-0.03252 0.09288,-0.06992 0.132808,-0.113688 0.03992,-0.04377 0.07539,-0.09358 0.104387,-0.149862 0.029,-0.05628 0.05149,-0.119098 0.06718,-0.189136 0.01569,-0.07004 0.02429,-0.147498 0.02429,-0.232544 v -2.340942 c 0,-0.08505 -0.0086,-0.162507 -0.02429,-0.232544 -0.01569,-0.07004 -0.03818,-0.132856 -0.06718,-0.189136 -0.029,-0.05628 -0.06446,-0.106088 -0.104387,-0.149861 -0.03992,-0.04377 -0.08434,-0.08169 -0.132808,-0.114205 -0.04846,-0.03252 -0.100927,-0.05965 -0.155546,-0.08217 -0.05462,-0.02251 -0.111625,-0.0405 -0.170016,-0.05426 -0.05839,-0.01376 -0.117989,-0.0232 -0.177767,-0.02946 -0.05978,-0.0063 -0.119502,-0.0093 -0.178283,-0.0093 z"
       inkscape:export-filename="logo.svg"
       inkscape:export-xdpi="96"
       inkscape:export-ydpi="96" />
  </g>
</svg>
